<?xml version="1.0" encoding="utf-8"?>
<!-- Generator: Adobe Illustrator 18.1.1, SVG Export Plug-In . SVG Version: 6.00 Build 0)  -->
<svg version="1.1" id="Layer_1" xmlns="http://www.w3.org/2000/svg" xmlns:xlink="http://www.w3.org/1999/xlink" x="0px" y="0px"
	 viewBox="0 0 342.3 279" enable-background="new 0 0 342.3 279" xml:space="preserve">
<g>
	<rect x="35.7" y="0" fill="#686868" width="121.7" height="8.7"/>
	<rect x="0" y="16.7" fill="#686868" width="157.3" height="7.3"/>
	<rect x="0" y="48" fill="#686868" width="157.3" height="7.3"/>
	<rect x="0" y="32.9" fill="#686868" width="157.3" height="7.3"/>
	<rect x="0" y="66" fill="#686868" width="117.4" height="7.3"/>
	<rect x="35.7" y="94.7" fill="#686868" width="121.7" height="8.7"/>
	<rect x="0" y="111.4" fill="#686868" width="157.3" height="7.3"/>
	<rect x="0" y="196.2" fill="#686868" width="157.3" height="7.3"/>
	<rect x="0" y="127.6" fill="#686868" width="157.3" height="7.3"/>
	<rect x="0" y="214.2" fill="#686868" width="117.4" height="7.3"/>
	<rect x="0" y="143.6" fill="#686868" width="157.3" height="7.3"/>
	<rect x="0" y="162" fill="#686868" width="157.3" height="7.3"/>
	<rect x="0" y="178" fill="#686868" width="157.3" height="7.3"/>
	<rect x="35.7" y="238" fill="#686868" width="121.7" height="8.7"/>
	<rect x="0" y="254.7" fill="#686868" width="157.3" height="7.3"/>
	<rect x="0" y="271" fill="#686868" width="157.3" height="7.3"/>
	<rect x="185" y="68.9" fill="#686868" width="157.3" height="7.3"/>
	<rect x="185" y="0.3" fill="#686868" width="157.3" height="7.3"/>
	<rect x="185" y="86.9" fill="#686868" width="117.4" height="7.3"/>
	<rect x="185" y="16.3" fill="#686868" width="157.3" height="7.3"/>
	<rect x="185" y="34.6" fill="#686868" width="157.3" height="7.3"/>
	<rect x="185" y="50.6" fill="#686868" width="157.3" height="7.3"/>
	<rect x="220.7" y="113.6" fill="#686868" width="121.7" height="8.7"/>
	<rect x="185" y="130.3" fill="#686868" width="157.3" height="7.3"/>
	<rect x="185" y="161.6" fill="#686868" width="157.3" height="7.3"/>
	<rect x="185" y="146.5" fill="#686868" width="157.3" height="7.3"/>
	<rect x="185" y="179.6" fill="#686868" width="117.4" height="7.3"/>
	<rect x="220.7" y="205.7" fill="#686868" width="121.7" height="8.7"/>
	<rect x="185" y="222.4" fill="#686868" width="157.3" height="7.3"/>
	<rect x="185" y="253.7" fill="#686868" width="157.3" height="7.3"/>
	<rect x="185" y="238.6" fill="#686868" width="157.3" height="7.3"/>
	<rect x="185" y="271.7" fill="#686868" width="117.4" height="7.3"/>
</g>
</svg>
